<?xml version="1.0" encoding="UTF-8" standalone="no"?>
<svg
   xmlns:dc="http://purl.org/dc/elements/1.1/"
   xmlns:cc="http://creativecommons.org/ns#"
   xmlns:rdf="http://www.w3.org/1999/02/22-rdf-syntax-ns#"
   xmlns:svg="http://www.w3.org/2000/svg"
   xmlns="http://www.w3.org/2000/svg"
   xmlns:sodipodi="http://sodipodi.sourceforge.net/DTD/sodipodi-0.dtd"
   xmlns:inkscape="http://www.inkscape.org/namespaces/inkscape"
   width="5000"
   height="1000"
   viewBox="0 0 4999.6668 999.6855"
   version="1.1"
   inkscape:version="0.91+devel r"
   id="svg2"
   sodipodi:docname="satellid-logo.svg"
   inkscape:export-filename="/home/mhaidarh/all/repo/hazeorid/satellid-base/resource/brand/assets/satellid-logo.png"
   inkscape:export-xdpi="96"
   inkscape:export-ydpi="96">
  <sodipodi:namedview
     pagecolor="#ffffff"
     bordercolor="#666666"
     borderopacity="1"
     objecttolerance="10"
     gridtolerance="10"
     guidetolerance="10"
     inkscape:pageopacity="0"
     inkscape:pageshadow="2"
     inkscape:window-width="1366"
     inkscape:window-height="744"
     id="namedview50"
     showgrid="false"
     inkscape:zoom="0.049612317"
     inkscape:cx="1278.8884"
     inkscape:cy="-653.58688"
     inkscape:window-x="0"
     inkscape:window-y="24"
     inkscape:window-maximized="1"
     inkscape:current-layer="text4178" />
  <style
     id="style4">.style0{fill:	none;fill-rule:	evenodd;}.style1{fill:	#de4f4f;}.style2{fill:	#fff;}</style>
  <style
     id="style6">.style0{fill:	none;fill-rule:	evenodd;}.style1{fill:	#de4f4f;}.style2{fill:	#fff;}</style>
  <metadata
     id="metadata8">
    <rdf:RDF>
      <cc:Work
         rdf:about="">
        <dc:format>image/svg+xml</dc:format>
        <dc:type
           rdf:resource="http://purl.org/dc/dcmitype/StillImage" />
        <dc:title>meteor-logo</dc:title>
      </cc:Work>
    </rdf:RDF>
  </metadata>
  <!-- Generator: Sketch 3.1.1 (8761) - http://www.bohemiancoding.com/sketch -->
  <title
     id="title10">Meteor Logo</title>
  <desc
     id="desc12">Created with Sketch.</desc>
  <defs
     id="defs14" />
  <g
     style="font-style:normal;font-weight:normal;font-size:125.68994904px;line-height:125%;font-family:Sans;letter-spacing:0px;word-spacing:0px;fill:#0064ff;fill-opacity:1;stroke:none;stroke-width:1px;stroke-linecap:butt;stroke-linejoin:miter;stroke-opacity:1"
     id="text4178"
     transform="translate(999.93334)">
    <path
       d="m 436.27799,570.22735 c 38.54491,12.56899 54.46564,22.62419 54.46564,63.6829 0,46.92425 -18.43452,56.14151 -85.46916,56.14151 -36.86905,0 -83.7933,-1.67586 -191.04872,-4.18966 l -7.5414,92.17263 c 88.8209,19.27246 161.72107,21.78626 198.59012,21.78626 157.5314,0 214.51084,-35.19319 214.51084,-166.74867 0,-84.63123 -30.16559,-137.42101 -122.33821,-170.10039 L 387.67787,425.26494 c -43.57251,-14.24486 -60.33117,-25.13799 -60.33117,-65.35877 0,-49.43805 21.78626,-52.78978 83.7933,-52.78978 61.16911,0 132.39341,0.83793 180.99352,2.5138 l 8.37933,-87.14503 c -64.52084,-18.43453 -133.23134,-22.62419 -190.21078,-22.62419 -149.15208,0 -210.32118,27.65179 -210.32118,160.0452 0,85.46916 31.84145,137.42101 119.82441,169.26246 l 116.47269,41.05872 z"
       style="font-style:normal;font-variant:normal;font-weight:bold;font-stretch:normal;font-size:837.9329834px;font-family:'Exo 2.0';-inkscape-font-specification:'Exo 2.0 Light';fill:#00aaff;fill-opacity:1"
       id="path5975"
       inkscape:connector-curvature="0" />
    <path
       d="m 1023.6952,637.26199 41.8966,151.66587 129.8797,0 -166.7487,-544.65644 c -5.0276,-20.94833 -22.6242,-33.51732 -44.41045,-33.51732 l -120.66235,0 c -20.94833,0 -39.38285,12.56899 -44.41045,33.51732 l -166.74866,544.65644 130.71754,0 41.89665,-151.66587 198.59012,0 z m -27.65179,-98.8761 -144.12447,0 48.60011,-176.80386 c 4.18967,-17.59659 8.37933,-36.86905 12.56899,-54.46564 l 22.6242,0 c 2.51379,17.59659 7.54139,36.86905 11.73106,54.46564 l 48.60011,176.80386 z"
       style="font-style:normal;font-variant:normal;font-weight:bold;font-stretch:normal;font-size:837.9329834px;font-family:'Exo 2.0';-inkscape-font-specification:'Exo 2.0 Light';fill:#00aaff;fill-opacity:1"
       id="path5977"
       inkscape:connector-curvature="0" />
    <path
       d="m 1636.054,314.65779 0,-103.90369 -473.4321,0 0,103.90369 172.6142,0 0,474.27007 128.2037,0 0,-474.27007 172.6142,0 z"
       style="font-style:normal;font-variant:normal;font-weight:bold;font-stretch:normal;font-size:837.9329834px;font-family:'Exo 2.0';-inkscape-font-specification:'Exo 2.0 Light';fill:#00aaff;fill-opacity:1"
       id="path5979"
       inkscape:connector-curvature="0" />
    <path
       d="m 2094.8746,689.21383 -222.0522,0 c -27.6518,0 -39.3828,-12.56899 -39.3828,-43.57251 l 0,-111.44509 230.4315,0 0,-92.17263 -230.4315,0 0,-87.98296 c 0,-30.16559 11.731,-42.73458 39.3828,-42.73458 l 222.0522,0 5.8656,-94.68643 c -78.7657,-8.37933 -178.4798,-8.37933 -268.1386,-8.37933 -77.0898,0 -126.5279,45.24838 -127.3658,116.47268 l 0,350.25599 c 0.8379,71.2243 50.276,116.47269 127.3658,116.47269 89.6588,0 189.3729,0 268.1386,-8.37933 l -5.8656,-93.8485 z"
       style="font-style:normal;font-variant:normal;font-weight:bold;font-stretch:normal;font-size:837.9329834px;font-family:'Exo 2.0';-inkscape-font-specification:'Exo 2.0 Light';fill:#00aaff;fill-opacity:1"
       id="path5981"
       inkscape:connector-curvature="0" />
    <path
       d="m 2318.7468,210.7541 -127.3658,0 0,457.51141 c 0,71.2243 39.3828,123.17615 132.3934,123.17615 82.1174,0 167.5866,-0.83794 244.6764,-9.21727 l -5.8655,-97.20022 -198.5901,0 c -32.6794,0 -45.2484,-12.569 -45.2484,-42.73459 l 0,-431.53548 z"
       style="font-style:normal;font-variant:normal;font-weight:bold;font-stretch:normal;font-size:837.9329834px;font-family:'Exo 2.0';-inkscape-font-specification:'Exo 2.0 Light';fill:#00aaff;fill-opacity:1"
       id="path5983"
       inkscape:connector-curvature="0" />
    <path
       d="m 2763.8988,210.7541 -127.3658,0 0,457.51141 c 0,71.2243 39.3828,123.17615 132.3934,123.17615 82.1174,0 167.5866,-0.83794 244.6764,-9.21727 l -5.8655,-97.20022 -198.5901,0 c -32.6794,0 -45.2484,-12.569 -45.2484,-42.73459 l 0,-431.53548 z"
       style="font-style:normal;font-variant:normal;font-weight:bold;font-stretch:normal;font-size:837.9329834px;font-family:'Exo 2.0';-inkscape-font-specification:'Exo 2.0 Light';fill:#00aaff;fill-opacity:1"
       id="path5985"
       inkscape:connector-curvature="0" />
    <path
       d="m 3210.7265,788.92786 0,-578.17376 -127.3658,0 0,578.17376 127.3658,0 z"
       style="font-style:normal;font-variant:normal;font-weight:bold;font-stretch:normal;font-size:837.9329834px;font-family:'Exo 2.0';-inkscape-font-specification:'Exo 2.0 Light';fill:#00aaff;fill-opacity:1"
       id="path5987"
       inkscape:connector-curvature="0" />
    <path
       d="m 3328.8487,788.92786 c 66.1967,4.18966 137.421,7.54139 224.5661,7.54139 181.8314,0 246.3523,-67.87257 246.3523,-296.62827 0,-228.75571 -64.5209,-296.62828 -246.3523,-296.62828 -87.983,0 -158.3694,3.35173 -224.5661,7.5414 l 0,578.17376 z m 127.3658,-485.1632 97.2003,-0.83793 c 86.3071,0 112.283,45.24838 112.283,196.91425 0,151.66587 -25.9759,196.07632 -112.283,196.07632 -35.1932,0 -67.8726,-0.83794 -97.2003,-0.83794 l 0,-391.3147 z"
       style="font-style:normal;font-variant:normal;font-weight:bold;font-stretch:normal;font-size:837.9329834px;font-family:'Exo 2.0';-inkscape-font-specification:'Exo 2.0 Light';fill:#00aaff;fill-opacity:1"
       id="path5989"
       inkscape:connector-curvature="0" />
  </g>
  <g
     id="g5991"
     transform="translate(2140.3513,-123.38453)">
    <g
       transform="translate(-2695.9171,1253.2909)"
       id="g4648">
      <path
         style="color:#000000;display:inline;overflow:visible;visibility:visible;fill:#0064ff;fill-opacity:1;fill-rule:nonzero;stroke:none;stroke-width:1px;marker:none;enable-background:accumulate"
         d="m 555.56576,-1130.0303 999.93334,0 0,999.93337 -999.93334,0 z"
         id="rect9114-2"
         inkscape:connector-curvature="0" />
      <path
         inkscape:connector-curvature="0"
         id="path4031"
         d="m 1055.5324,-630.06361 499.9667,499.96663 -999.93334,0 z"
         style="color:#000000;display:inline;overflow:visible;visibility:visible;fill:#0078ff;fill-opacity:1;fill-rule:nonzero;stroke:none;stroke-width:1px;marker:none;enable-background:accumulate"
         sodipodi:nodetypes="cccc" />
      <path
         sodipodi:nodetypes="cccc"
         style="color:#000000;display:inline;overflow:visible;visibility:visible;fill:#008cff;fill-opacity:1;fill-rule:nonzero;stroke:none;stroke-width:1px;marker:none;enable-background:accumulate"
         d="m 1055.5325,-630.06361 499.9666,499.96668 0,-999.93337 z"
         id="path4044"
         inkscape:connector-curvature="0" />
      <path
         sodipodi:nodetypes="cccc"
         style="color:#000000;display:inline;overflow:visible;visibility:visible;fill:#00a0ff;fill-opacity:1;fill-rule:nonzero;stroke:none;stroke-width:1px;marker:none;enable-background:accumulate"
         d="m 1055.5324,-630.06366 499.9667,-499.96664 -999.93334,0 z"
         id="path4046"
         inkscape:connector-curvature="0" />
    </g>
    <g
       id="g5093"
       transform="translate(-2140.3513,123.38451)">
      <path
         id="rect4150"
         transform="matrix(0.99993337,0,0,0.99993337,0,-0.12392363)"
         d="m 200,200 0,100 0,100 129.28906,0 L 600,670.71094 600,700 l -200,0 0,-100 -200,0 0,200 200,0 400,0 0,-100 0,-100 -129.28906,0 L 400,329.28906 400,300 l 200,0 0,100 200,0 0,-100 0,-100 -200,0 -200,0 -200,0 z"
         style="opacity:1;fill:#ffffff;fill-opacity:1;stroke:none;stroke-width:5;stroke-linecap:square;stroke-linejoin:miter;stroke-miterlimit:4;stroke-dasharray:none;stroke-opacity:0.4"
         inkscape:connector-curvature="0" />
    </g>
  </g>
</svg>
